<svg id="visual" viewBox="0 0 900 600" width="900" height="600" xmlns="http://www.w3.org/2000/svg" xmlns:xlink="http://www.w3.org/1999/xlink" version="1.1"><rect x="0" y="0" width="900" height="600" fill="#ffebeb"></rect><path d="M0 478L15 476.7C30 475.3 60 472.7 90 470.5C120 468.3 150 466.7 180 471C210 475.3 240 485.7 270 488.5C300 491.3 330 486.7 360 479.3C390 472 420 462 450 459.3C480 456.7 510 461.3 540 469.5C570 477.7 600 489.3 630 487.7C660 486 690 471 720 468.2C750 465.3 780 474.7 810 477.3C840 480 870 476 885 474L900 472L900 601L885 601C870 601 840 601 810 601C780 601 750 601 720 601C690 601 660 601 630 601C600 601 570 601 540 601C510 601 480 601 450 601C420 601 390 601 360 601C330 601 300 601 270 601C240 601 210 601 180 601C150 601 120 601 90 601C60 601 30 601 15 601L0 601Z" fill="#ffd8d8"></path><path d="M0 505L15 506.8C30 508.7 60 512.3 90 509.5C120 506.7 150 497.3 180 497.2C210 497 240 506 270 507.3C300 508.7 330 502.3 360 501.3C390 500.3 420 504.7 450 511.2C480 517.7 510 526.3 540 527.3C570 528.3 600 521.7 630 515C660 508.3 690 501.7 720 500.3C750 499 780 503 810 507.2C840 511.3 870 515.7 885 517.8L900 520L900 601L885 601C870 601 840 601 810 601C780 601 750 601 720 601C690 601 660 601 630 601C600 601 570 601 540 601C510 601 480 601 450 601C420 601 390 601 360 601C330 601 300 601 270 601C240 601 210 601 180 601C150 601 120 601 90 601C60 601 30 601 15 601L0 601Z" fill="#fec8c8"></path><path d="M0 534L15 533C30 532 60 530 90 534C120 538 150 548 180 548.5C210 549 240 540 270 540C300 540 330 549 360 551.2C390 553.3 420 548.7 450 541.3C480 534 510 524 540 524.7C570 525.3 600 536.7 630 540C660 543.3 690 538.7 720 536.5C750 534.3 780 534.7 810 534.8C840 535 870 535 885 535L900 535L900 601L885 601C870 601 840 601 810 601C780 601 750 601 720 601C690 601 660 601 630 601C600 601 570 601 540 601C510 601 480 601 450 601C420 601 390 601 360 601C330 601 300 601 270 601C240 601 210 601 180 601C150 601 120 601 90 601C60 601 30 601 15 601L0 601Z" fill="#fcb8b8"></path><path d="M0 573L15 568.8C30 564.7 60 556.3 90 555.5C120 554.7 150 561.3 180 562C210 562.7 240 557.3 270 557.3C300 557.3 330 562.7 360 561.7C390 560.7 420 553.3 450 552.7C480 552 510 558 540 559.3C570 560.7 600 557.3 630 555.7C660 554 690 554 720 554.3C750 554.7 780 555.3 810 558.5C840 561.7 870 567.3 885 570.2L900 573L900 601L885 601C870 601 840 601 810 601C780 601 750 601 720 601C690 601 660 601 630 601C600 601 570 601 540 601C510 601 480 601 450 601C420 601 390 601 360 601C330 601 300 601 270 601C240 601 210 601 180 601C150 601 120 601 90 601C60 601 30 601 15 601L0 601Z" fill="#faa8a8"></path></svg>